<svg width="20" height="20" viewBox="0 0 20 20" fill="none" xmlns="http://www.w3.org/2000/svg">
<path d="M19.7075 18.2925C19.8004 18.3854 19.8741 18.4957 19.9244 18.6171C19.9747 18.7385 20.0006 18.8686 20.0006 19C20.0006 19.1314 19.9747 19.2615 19.9244 19.3829C19.8741 19.5043 19.8004 19.6146 19.7075 19.7075C19.6146 19.8004 19.5043 19.8741 19.3829 19.9244C19.2615 19.9747 19.1314 20.0006 19 20.0006C18.8686 20.0006 18.7385 19.9747 18.6171 19.9244C18.4957 19.8741 18.3854 19.8004 18.2925 19.7075L10 11.4137L1.7075 19.7075C1.51986 19.8951 1.26536 20.0006 1 20.0006C0.734636 20.0006 0.480141 19.8951 0.2925 19.7075C0.104859 19.5199 -0.000555987 19.2654 -0.000555992 19C-0.000555997 18.7346 0.104859 18.4801 0.2925 18.2925L8.58625 10L0.2925 1.7075C0.104859 1.51986 -0.000555994 1.26536 -0.000555992 0.999999C-0.00055599 0.734635 0.104859 0.48014 0.2925 0.292499C0.480141 0.104858 0.734636 -0.000556944 1 -0.000556946C1.26536 -0.000556948 1.51986 0.104858 1.7075 0.292499L10 8.58625L18.2925 0.292499C18.4801 0.104858 18.7346 -0.000556951 19 -0.000556946C19.2654 -0.000556941 19.5199 0.104858 19.7075 0.292499C19.8951 0.48014 20.0006 0.734635 20.0006 0.999999C20.0006 1.26536 19.8951 1.51986 19.7075 1.7075L11.4137 10L19.7075 18.2925Z" fill="black"/>
</svg>
